<?xml version="1.0" encoding="UTF-8" standalone="no"?> <svg width="64" height="64" viewBox="0 0 64 64" fill="none" xmlns="http://www.w3.org/2000/svg">
<path d="M32 5C26.6599 5 21.4397 6.58352 16.9996 9.55032C12.5595 12.5171 9.09883 16.7339 7.05526 21.6675C5.0117 26.6012 4.47701 32.0299 5.51881 37.2674C6.56061 42.5049 9.13211 47.3159 12.9081 51.0919C16.6841 54.8679 21.4951 57.4394 26.7326 58.4812C31.9701 59.523 37.3989 58.9883 42.3325 56.9447C47.2661 54.9012 51.4829 51.4405 54.4497 47.0004C57.4165 42.5603 59 37.3401 59 32C59 24.8392 56.1554 17.9716 51.0919 12.9081C46.0284 7.84464 39.1609 5 32 5ZM32 57C27.0555 57 22.222 55.5338 18.1108 52.7867C13.9995 50.0397 10.7952 46.1352 8.90302 41.5671C7.01083 36.9989 6.51575 31.9723 7.48038 27.1227C8.44501 22.2732 10.826 17.8186 14.3223 14.3223C17.8187 10.826 22.2732 8.445 27.1228 7.48037C31.9723 6.51574 36.9989 7.01082 41.5671 8.90301C46.1352 10.7952 50.0397 13.9995 52.7868 18.1107C55.5338 22.222 57 27.0555 57 32C57 35.283 56.3534 38.5339 55.097 41.5671C53.8406 44.6002 51.9991 47.3562 49.6777 49.6777C47.3562 51.9991 44.6002 53.8406 41.5671 55.097C38.534 56.3534 35.2831 57 32 57V57Z" fill="black"/>
<path d="M50.0499 19.2495C49.6381 18.7181 49.1129 18.2853 48.5126 17.9825C47.9123 17.6798 47.2521 17.5148 46.5799 17.4995C45.9106 17.4771 45.2451 17.6088 44.6347 17.8845C44.0244 18.1602 43.4856 18.5725 43.0599 19.0895L29.9099 34.5595C29.6524 34.8574 29.2888 35.0429 28.8965 35.0765C28.5042 35.1101 28.1143 34.9892 27.8099 34.7395L20.3699 28.5395C19.8977 28.1526 19.3524 27.8646 18.7666 27.6929C18.1807 27.5211 17.5663 27.4689 16.9599 27.5395C16.3525 27.6113 15.7661 27.8062 15.2366 28.1122C14.707 28.4183 14.2454 28.8291 13.8799 29.3195C13.1959 30.2786 12.9058 31.4635 13.0696 32.63C13.2333 33.7966 13.8383 34.8558 14.7599 35.5895L26.6099 45.4695C27.5219 46.228 28.6964 46.5957 29.8781 46.4927C31.0597 46.3897 32.1529 45.8243 32.9199 44.9195L49.8599 24.9995C50.5456 24.208 50.9387 23.2049 50.9733 22.1582C51.0079 21.1115 50.6819 20.0846 50.0499 19.2495ZM48.3299 23.6895L31.3899 43.6195C30.9548 44.1065 30.3501 44.4088 29.6995 44.4646C29.0489 44.5203 28.4015 44.3253 27.8899 43.9195L15.9999 34.0495C15.4783 33.6381 15.131 33.0453 15.0272 32.3891C14.9234 31.733 15.0708 31.0618 15.4399 30.5095C15.6425 30.2336 15.8998 30.0023 16.1957 29.8303C16.4916 29.6582 16.8199 29.549 17.1599 29.5095H17.4599C18.0417 29.5096 18.6048 29.715 19.0499 30.0895L26.4799 36.2895C27.1907 36.8773 28.1043 37.1618 29.0231 37.0813C29.9419 37.0008 30.7921 36.5619 31.3899 35.8595L44.5799 20.3795C44.8226 20.0951 45.1258 19.8684 45.4673 19.7161C45.8088 19.5639 46.18 19.4898 46.5538 19.4994C46.9276 19.509 47.2945 19.602 47.6277 19.7715C47.961 19.9411 48.2521 20.183 48.4799 20.4795C48.8288 20.9499 49.0044 21.5263 48.9771 22.1113C48.9497 22.6962 48.7211 23.2538 48.3299 23.6895Z" fill="black"/>
</svg>
